<?xml version="1.0" encoding="UTF-8"?>
<svg version="1.1" xmlns="http://www.w3.org/2000/svg" width="100" height="100">
<path d="M0 0 C10.79907716 8.54154777 17.27322616 20.47581089 19.50390625 33.98046875 C19.9287864 41.6085495 19.58879894 48.62202396 17.50390625 55.98046875 C17.17390625 56.31046875 16.84390625 56.64046875 16.50390625 56.98046875 C14.81248969 56.89083813 13.12431023 56.73469199 11.44140625 56.54296875 C10.52230469 56.44113281 9.60320312 56.33929688 8.65625 56.234375 C7.59083984 56.10869141 7.59083984 56.10869141 6.50390625 55.98046875 C6.64828125 55.38621094 6.79265625 54.79195312 6.94140625 54.1796875 C9.73415598 41.70928418 9.09214746 31.16011594 2.87890625 19.85546875 C-3.54024655 9.80878488 -12.38417368 4.68444211 -23.49609375 0.98046875 C-23.49609375 -0.33953125 -23.49609375 -1.65953125 -23.49609375 -3.01953125 C-27.45609375 -3.34953125 -31.41609375 -3.67953125 -35.49609375 -4.01953125 C-35.47546875 -2.68277344 -35.45484375 -1.34601562 -35.43359375 0.03125 C-35.44356163 7.10470938 -35.92289641 14.12040389 -36.49609375 21.16796875 C-36.55289307 22.16606567 -36.55289307 22.16606567 -36.61083984 23.18432617 C-37.33614503 35.75169212 -37.33614503 35.75169212 -42.24609375 40.46875 C-44.88211779 42.59268227 -45.97352054 43.01212781 -49.38549805 42.80541992 C-52.6628122 41.93625388 -55.46748671 40.77580739 -58.515625 39.29296875 C-59.61970703 38.75929687 -60.72378906 38.225625 -61.86132812 37.67578125 C-62.99892578 37.11632812 -64.13652344 36.556875 -65.30859375 35.98046875 C-66.46552734 35.42101563 -67.62246094 34.8615625 -68.81445312 34.28515625 C-77.33325446 30.14330804 -77.33325446 30.14330804 -78.49609375 28.98046875 C-78.31653781 19.28444797 -73.44513192 11.72135362 -66.99609375 4.73046875 C-48.74796782 -12.58044225 -20.53424139 -14.01828124 0 0 Z " fill="#FFD700" transform="translate(80.49609375,28.01953125)"/>
<path d="M0 0 C5.45565919 0.43645273 8.71767985 1.57414388 13 5 C13.8971875 6.2375 13.8971875 6.2375 14.8125 7.5 C17.91858858 11.04981552 21.65803278 12.33929032 26 14 C25.9175 14.886875 25.835 15.77375 25.75 16.6875 C26.05606184 20.74281938 27.47570741 21.9235184 30 25 C30.5 27.625 30.5 27.625 30 30 C28.16539218 32.11181504 26.6738143 32.92388394 23.890625 33.23828125 C21.33740118 33.29556512 18.80276161 33.26102858 16.25 33.1875 C14.91775391 33.16719727 14.91775391 33.16719727 13.55859375 33.14648438 C11.37177422 33.11121309 9.18620034 33.06192752 7 33 C7.33 31.35 7.66 29.7 8 28 C8.99 27.67 9.98 27.34 11 27 C11 26.34 11 25.68 11 25 C9.68 25 8.36 25 7 25 C5.63636792 23.02053408 4.30581356 21.0180755 3 19 C1.36764854 17.94491399 -0.29593575 16.93484909 -2 16 C-1.85936865 13.70800823 -1.71234057 11.41640814 -1.5625 9.125 C-1.48128906 7.84882812 -1.40007813 6.57265625 -1.31640625 5.2578125 C-1 2 -1 2 0 0 Z " fill="#FFD700" transform="translate(47,49)"/>
<path d="M0 0 C6.1438115 0.54726388 11.29687848 3.11554579 16.8125 5.6875 C17.77865234 6.10966797 18.74480469 6.53183594 19.74023438 6.96679688 C21.11598633 7.6077832 21.11598633 7.6077832 22.51953125 8.26171875 C23.35589111 8.64287842 24.19225098 9.02403809 25.05395508 9.41674805 C27 11 27 11 28 17 C17.77 17.66 7.54 18.32 -3 19 C-2.67 17.02 -2.34 15.04 -2 13 C-1.64249731 10.70885139 -1.28834354 8.41717777 -0.9375 6.125 C-0.67259766 4.39636719 -0.67259766 4.39636719 -0.40234375 2.6328125 C-0.26957031 1.76398438 -0.13679687 0.89515625 0 0 Z " fill="#FFD700" transform="translate(6,65)"/>
<path d="M0 0 C2.475 0.495 2.475 0.495 5 1 C5.268125 1.969375 5.53625 2.93875 5.8125 3.9375 C6.204375 4.948125 6.59625 5.95875 7 7 C7.99 7.33 8.98 7.66 10 8 C10.99 7.34 11.98 6.68 13 6 C15.125 6.25 15.125 6.25 17 7 C17.33 7.66 17.66 8.32 18 9 C13.33783784 13.81756757 13.33783784 13.81756757 9.25 14.375 C5.77363457 13.97388091 3.73930886 13.06653871 1.125 10.7109375 C-1.02507415 7.44103307 -0.44068681 3.74583789 0 0 Z " fill="#FFD700" transform="translate(34,71)"/>
</svg>
